<svg width="150" height="32" viewBox="0 0 150 32" fill="none" xmlns="http://www.w3.org/2000/svg">
<path d="M40.9307 25.479C39.1528 25.479 37.5907 25.0968 36.2443 24.3323C34.9152 23.5508 33.8709 22.4636 33.1114 21.0706C32.3692 19.6776 31.998 18.0722 31.998 16.2545C31.998 14.4368 32.3692 12.8399 33.1114 11.4639C33.8709 10.0708 34.9152 8.9836 36.2443 8.20215C37.5907 7.4207 39.1528 7.02998 40.9307 7.02998C42.7259 7.02998 44.288 7.4207 45.6171 8.20215C46.9635 8.9836 48.0078 10.0708 48.75 11.4639C49.4922 12.8399 49.8633 14.4368 49.8633 16.2545C49.8633 18.0722 49.4922 19.6776 48.75 21.0706C48.0078 22.4636 46.9635 23.5508 45.6171 24.3323C44.288 25.0968 42.7259 25.479 40.9307 25.479ZM40.9307 23.5933C42.2598 23.5933 43.4249 23.3045 44.4261 22.7269C45.4445 22.1323 46.2299 21.2914 46.7822 20.2042C47.3518 19.1 47.6366 17.7834 47.6366 16.2545C47.6366 14.7256 47.3518 13.4175 46.7822 12.3302C46.2299 11.243 45.4445 10.4106 44.4261 9.833C43.4249 9.23842 42.2598 8.94113 40.9307 8.94113C39.6016 8.94113 38.4278 9.23842 37.4094 9.833C36.4083 10.4106 35.6229 11.243 35.0533 12.3302C34.5009 13.4175 34.2247 14.7256 34.2247 16.2545C34.2247 17.7834 34.5009 19.1 35.0533 20.2042C35.6229 21.2914 36.4083 22.1323 37.4094 22.7269C38.4278 23.3045 39.6016 23.5933 40.9307 23.5933Z" fill="#161616"/>
<path d="M52.8714 30.7793V12.5341H54.8392L55.0463 14.6236C55.4606 14.0121 56.0475 13.46 56.807 12.9673C57.5837 12.4746 58.5676 12.2283 59.7586 12.2283C61.036 12.2283 62.1493 12.5171 63.0987 13.0947C64.048 13.6723 64.7816 14.4622 65.2995 15.4645C65.8346 16.4668 66.1021 17.605 66.1021 18.8791C66.1021 20.1532 65.8346 21.2914 65.2995 22.2937C64.7816 23.279 64.0394 24.0605 63.0728 24.6381C62.1234 25.1987 61.0101 25.479 59.7327 25.479C58.6798 25.479 57.7391 25.2666 56.9105 24.8419C56.0993 24.4172 55.4779 23.8227 55.0463 23.0582V30.7793H52.8714ZM59.4997 23.6188C60.3628 23.6188 61.1223 23.4234 61.7782 23.0327C62.4341 22.625 62.9519 22.0644 63.3317 21.3509C63.7114 20.6374 63.9013 19.805 63.9013 18.8537C63.9013 17.9023 63.7114 17.0699 63.3317 16.3564C62.9519 15.6429 62.4341 15.0908 61.7782 14.7001C61.1223 14.2924 60.3628 14.0885 59.4997 14.0885C58.6367 14.0885 57.8772 14.2924 57.2212 14.7001C56.5653 15.0908 56.0475 15.6429 55.6677 16.3564C55.288 17.0699 55.0981 17.9023 55.0981 18.8537C55.0981 19.805 55.288 20.6374 55.6677 21.3509C56.0475 22.0644 56.5653 22.625 57.2212 23.0327C57.8772 23.4234 58.6367 23.6188 59.4997 23.6188Z" fill="#161616"/>
<path d="M74.9035 25.479C73.6779 25.479 72.5905 25.2072 71.6411 24.6636C70.6917 24.103 69.9409 23.33 69.3885 22.3447C68.8534 21.3594 68.5859 20.1957 68.5859 18.8537C68.5859 17.5286 68.8534 16.3734 69.3885 15.3881C69.9236 14.3858 70.6659 13.6128 71.6152 13.0692C72.5818 12.5086 73.6952 12.2283 74.9552 12.2283C76.1981 12.2283 77.2682 12.5086 78.1658 13.0692C79.0807 13.6128 79.7797 14.3348 80.2631 15.2352C80.7464 16.1356 80.988 17.1039 80.988 18.1402C80.988 18.327 80.9794 18.5139 80.9621 18.7008C80.9621 18.8876 80.9621 19.1 80.9621 19.3378H70.7349C70.7867 20.3061 71.0111 21.1131 71.4081 21.7586C71.8223 22.3872 72.3316 22.8628 72.9357 23.1856C73.5571 23.5084 74.213 23.6698 74.9035 23.6698C75.801 23.6698 76.5519 23.4659 77.156 23.0582C77.7602 22.6505 78.2003 22.0984 78.4765 21.4019H80.6255C80.2803 22.574 79.6158 23.5508 78.6319 24.3323C77.6652 25.0968 76.4224 25.479 74.9035 25.479ZM74.9035 14.0375C73.8678 14.0375 72.9443 14.3518 72.133 14.9804C71.339 15.592 70.8816 16.4923 70.7608 17.6815H78.839C78.7872 16.5433 78.3902 15.6514 77.648 15.0059C76.9058 14.3603 75.9909 14.0375 74.9035 14.0375Z" fill="#161616"/>
<path d="M83.8707 25.1732V12.5341H85.8385L85.9679 14.802C86.3822 14.0036 86.9777 13.375 87.7545 12.9163C88.5312 12.4577 89.4115 12.2283 90.3954 12.2283C91.9144 12.2283 93.1227 12.687 94.0203 13.6044C94.9351 14.5047 95.3925 15.8977 95.3925 17.7834V25.1732H93.2176V18.0127C93.2176 15.3796 92.1129 14.063 89.9035 14.063C88.7988 14.063 87.8753 14.4622 87.1331 15.2607C86.4081 16.0421 86.0456 17.1633 86.0456 18.6243V25.1732H83.8707Z" fill="#161616"/>
<path d="M98.8171 25.1732V7.33576H100.992V23.4659H109.433V25.1732H98.8171Z" fill="#161616"/>
<path d="M116.563 25.479C115.493 25.479 114.604 25.3006 113.896 24.9439C113.188 24.5871 112.662 24.1115 112.317 23.5169C111.972 22.9223 111.799 22.2767 111.799 21.5802C111.799 20.2891 112.3 19.2953 113.301 18.5988C114.302 17.9023 115.665 17.5541 117.392 17.5541H120.861V17.4012C120.861 16.297 120.568 15.4645 119.981 14.9039C119.394 14.3263 118.608 14.0375 117.625 14.0375C116.779 14.0375 116.045 14.2499 115.424 14.6746C114.82 15.0823 114.44 15.6854 114.285 16.4838H112.058C112.144 15.5665 112.455 14.7935 112.99 14.165C113.542 13.5364 114.224 13.0607 115.035 12.738C115.847 12.3982 116.71 12.2283 117.625 12.2283C119.42 12.2283 120.766 12.704 121.664 13.6553C122.579 14.5897 123.036 15.8383 123.036 17.4012V25.1732H121.094L120.965 22.9053C120.602 23.6188 120.067 24.2304 119.359 24.74C118.669 25.2327 117.737 25.479 116.563 25.479ZM116.9 23.6698C117.728 23.6698 118.436 23.4574 119.023 23.0327C119.627 22.608 120.084 22.0559 120.395 21.3764C120.706 20.6969 120.861 19.9834 120.861 19.2359V19.2104H117.573C116.296 19.2104 115.389 19.4312 114.854 19.8729C114.336 20.2976 114.077 20.8328 114.077 21.4783C114.077 22.1408 114.319 22.676 114.802 23.0837C115.303 23.4744 116.002 23.6698 116.9 23.6698Z" fill="#161616"/>
<path d="M128.635 25.1732L124.881 12.5341H127.056L129.774 22.4466L132.778 12.5341H135.237L138.267 22.4466L140.96 12.5341H143.16L139.406 25.1732H137.179L134.021 14.751L130.862 25.1732H128.635Z" fill="#161616"/>
<g filter="url(#filter0_ii_1777_3607)">
<rect y="3.83992" width="15.6069" height="15.36" rx="7.68" fill="#59CC46"/>
</g>
<g filter="url(#filter1_ii_1777_3607)">
<rect x="8.6709" y="12.3734" width="15.6069" height="15.36" rx="7.68" fill="url(#paint0_linear_1777_3607)"/>
</g>
<defs>
<filter id="filter0_ii_1777_3607" x="0" y="3.4064" width="15.6074" height="16.2271" filterUnits="userSpaceOnUse" color-interpolation-filters="sRGB">
<feFlood flood-opacity="0" result="BackgroundImageFix"/>
<feBlend mode="normal" in="SourceGraphic" in2="BackgroundImageFix" result="shape"/>
<feColorMatrix in="SourceAlpha" type="matrix" values="0 0 0 0 0 0 0 0 0 0 0 0 0 0 0 0 0 0 127 0" result="hardAlpha"/>
<feOffset dy="0.433526"/>
<feGaussianBlur stdDeviation="0.216763"/>
<feComposite in2="hardAlpha" operator="arithmetic" k2="-1" k3="1"/>
<feColorMatrix type="matrix" values="0 0 0 0 0.932788 0 0 0 0 0.932788 0 0 0 0 0.932788 0 0 0 0.24 0"/>
<feBlend mode="normal" in2="shape" result="effect1_innerShadow_1777_3607"/>
<feColorMatrix in="SourceAlpha" type="matrix" values="0 0 0 0 0 0 0 0 0 0 0 0 0 0 0 0 0 0 127 0" result="hardAlpha"/>
<feOffset dy="-0.433526"/>
<feGaussianBlur stdDeviation="0.216763"/>
<feComposite in2="hardAlpha" operator="arithmetic" k2="-1" k3="1"/>
<feColorMatrix type="matrix" values="0 0 0 0 0 0 0 0 0 0 0 0 0 0 0 0 0 0 0.16 0"/>
<feBlend mode="normal" in2="effect1_innerShadow_1777_3607" result="effect2_innerShadow_1777_3607"/>
</filter>
<filter id="filter1_ii_1777_3607" x="8.6709" y="11.9398" width="15.6074" height="16.2271" filterUnits="userSpaceOnUse" color-interpolation-filters="sRGB">
<feFlood flood-opacity="0" result="BackgroundImageFix"/>
<feBlend mode="normal" in="SourceGraphic" in2="BackgroundImageFix" result="shape"/>
<feColorMatrix in="SourceAlpha" type="matrix" values="0 0 0 0 0 0 0 0 0 0 0 0 0 0 0 0 0 0 127 0" result="hardAlpha"/>
<feOffset dy="0.433526"/>
<feGaussianBlur stdDeviation="0.216763"/>
<feComposite in2="hardAlpha" operator="arithmetic" k2="-1" k3="1"/>
<feColorMatrix type="matrix" values="0 0 0 0 0.932788 0 0 0 0 0.932788 0 0 0 0 0.932788 0 0 0 0.24 0"/>
<feBlend mode="normal" in2="shape" result="effect1_innerShadow_1777_3607"/>
<feColorMatrix in="SourceAlpha" type="matrix" values="0 0 0 0 0 0 0 0 0 0 0 0 0 0 0 0 0 0 127 0" result="hardAlpha"/>
<feOffset dy="-0.433526"/>
<feGaussianBlur stdDeviation="0.216763"/>
<feComposite in2="hardAlpha" operator="arithmetic" k2="-1" k3="1"/>
<feColorMatrix type="matrix" values="0 0 0 0 0 0 0 0 0 0 0 0 0 0 0 0 0 0 0.16 0"/>
<feBlend mode="normal" in2="effect1_innerShadow_1777_3607" result="effect2_innerShadow_1777_3607"/>
</filter>
<linearGradient id="paint0_linear_1777_3607" x1="13.3989" y1="11.6419" x2="20.9132" y2="29.5718" gradientUnits="userSpaceOnUse">
<stop stop-color="#008CFF"/>
<stop offset="1" stop-color="#0078DB"/>
</linearGradient>
</defs>
</svg>
