<svg width="150" height="32" viewBox="0 0 150 32" fill="none" xmlns="http://www.w3.org/2000/svg">
<path d="M40.9307 25.4791C39.1528 25.4791 37.5907 25.0969 36.2443 24.3324C34.9152 23.551 33.8709 22.4637 33.1114 21.0707C32.3692 19.6777 31.998 18.0723 31.998 16.2546C31.998 14.4369 32.3692 12.84 33.1114 11.464C33.8709 10.071 34.9152 8.98373 36.2443 8.20228C37.5907 7.42083 39.1528 7.03011 40.9307 7.03011C42.7259 7.03011 44.288 7.42083 45.6171 8.20228C46.9635 8.98373 48.0078 10.071 48.75 11.464C49.4922 12.84 49.8633 14.4369 49.8633 16.2546C49.8633 18.0723 49.4922 19.6777 48.75 21.0707C48.0078 22.4637 46.9635 23.551 45.6171 24.3324C44.288 25.0969 42.7259 25.4791 40.9307 25.4791ZM40.9307 23.5934C42.2598 23.5934 43.4249 23.3046 44.4261 22.7271C45.4445 22.1325 46.2299 21.2916 46.7822 20.2043C47.3518 19.1001 47.6366 17.7835 47.6366 16.2546C47.6366 14.7257 47.3518 13.4176 46.7822 12.3304C46.2299 11.2431 45.4445 10.4107 44.4261 9.83313C43.4249 9.23855 42.2598 8.94126 40.9307 8.94126C39.6016 8.94126 38.4278 9.23855 37.4094 9.83313C36.4083 10.4107 35.6229 11.2431 35.0533 12.3304C34.5009 13.4176 34.2247 14.7257 34.2247 16.2546C34.2247 17.7835 34.5009 19.1001 35.0533 20.2043C35.6229 21.2916 36.4083 22.1325 37.4094 22.7271C38.4278 23.3046 39.6016 23.5934 40.9307 23.5934Z" fill="white"/>
<path d="M52.8714 30.7794V12.5342H54.8392L55.0463 14.6238C55.4606 14.0122 56.0475 13.4601 56.807 12.9674C57.5837 12.4748 58.5676 12.2284 59.7586 12.2284C61.036 12.2284 62.1493 12.5172 63.0987 13.0948C64.048 13.6724 64.7816 14.4624 65.2995 15.4647C65.8346 16.467 66.1021 17.6052 66.1021 18.8793C66.1021 20.1534 65.8346 21.2916 65.2995 22.2939C64.7816 23.2792 64.0394 24.0606 63.0728 24.6382C62.1234 25.1988 61.0101 25.4791 59.7327 25.4791C58.6798 25.4791 57.7391 25.2668 56.9105 24.8421C56.0993 24.4174 55.4779 23.8228 55.0463 23.0583V30.7794H52.8714ZM59.4997 23.6189C60.3628 23.6189 61.1223 23.4236 61.7782 23.0328C62.4341 22.6251 62.9519 22.0645 63.3317 21.351C63.7114 20.6375 63.9013 19.8051 63.9013 18.8538C63.9013 17.9024 63.7114 17.07 63.3317 16.3565C62.9519 15.643 62.4341 15.0909 61.7782 14.7002C61.1223 14.2925 60.3628 14.0886 59.4997 14.0886C58.6367 14.0886 57.8772 14.2925 57.2212 14.7002C56.5653 15.0909 56.0475 15.643 55.6677 16.3565C55.288 17.07 55.0981 17.9024 55.0981 18.8538C55.0981 19.8051 55.288 20.6375 55.6677 21.351C56.0475 22.0645 56.5653 22.6251 57.2212 23.0328C57.8772 23.4236 58.6367 23.6189 59.4997 23.6189Z" fill="white"/>
<path d="M74.9035 25.4791C73.6779 25.4791 72.5905 25.2073 71.6411 24.6637C70.6917 24.1031 69.9409 23.3301 69.3885 22.3448C68.8534 21.3595 68.5859 20.1958 68.5859 18.8538C68.5859 17.5287 68.8534 16.3735 69.3885 15.3882C69.9236 14.3859 70.6659 13.613 71.6152 13.0694C72.5818 12.5087 73.6952 12.2284 74.9552 12.2284C76.1981 12.2284 77.2682 12.5087 78.1658 13.0694C79.0807 13.613 79.7797 14.335 80.2631 15.2353C80.7464 16.1357 80.988 17.104 80.988 18.1403C80.988 18.3272 80.9794 18.514 80.9621 18.7009C80.9621 18.8878 80.9621 19.1001 80.9621 19.3379H70.7349C70.7867 20.3063 71.0111 21.1132 71.4081 21.7587C71.8223 22.3873 72.3316 22.863 72.9357 23.1857C73.5571 23.5085 74.213 23.6699 74.9035 23.6699C75.801 23.6699 76.5519 23.466 77.156 23.0583C77.7602 22.6506 78.2003 22.0985 78.4765 21.402H80.6255C80.2803 22.5742 79.6158 23.551 78.6319 24.3324C77.6652 25.0969 76.4224 25.4791 74.9035 25.4791ZM74.9035 14.0377C73.8678 14.0377 72.9443 14.352 72.133 14.9805C71.339 15.5921 70.8816 16.4924 70.7608 17.6816H78.839C78.7872 16.5434 78.3902 15.6515 77.648 15.006C76.9058 14.3604 75.9909 14.0377 74.9035 14.0377Z" fill="white"/>
<path d="M83.8707 25.1733V12.5342H85.8385L85.9679 14.8021C86.3822 14.0037 86.9777 13.3751 87.7545 12.9165C88.5312 12.4578 89.4115 12.2284 90.3954 12.2284C91.9144 12.2284 93.1227 12.6871 94.0203 13.6045C94.9351 14.5048 95.3925 15.8979 95.3925 17.7835V25.1733H93.2176V18.0129C93.2176 15.3797 92.1129 14.0632 89.9035 14.0632C88.7988 14.0632 87.8753 14.4624 87.1331 15.2608C86.4081 16.0423 86.0456 17.1635 86.0456 18.6244V25.1733H83.8707Z" fill="white"/>
<path d="M98.8171 25.1733V7.33589H100.992V23.466H109.433V25.1733H98.8171Z" fill="white"/>
<path d="M116.563 25.4791C115.493 25.4791 114.604 25.3007 113.896 24.944C113.188 24.5872 112.662 24.1116 112.317 23.517C111.972 22.9224 111.799 22.2769 111.799 21.5804C111.799 20.2893 112.3 19.2955 113.301 18.599C114.302 17.9025 115.665 17.5542 117.392 17.5542H120.861V17.4013C120.861 16.2971 120.568 15.4647 119.981 14.9041C119.394 14.3265 118.608 14.0377 117.625 14.0377C116.779 14.0377 116.045 14.25 115.424 14.6747C114.82 15.0824 114.44 15.6855 114.285 16.4839H112.058C112.144 15.5666 112.455 14.7936 112.99 14.1651C113.542 13.5365 114.224 13.0609 115.035 12.7381C115.847 12.3983 116.71 12.2284 117.625 12.2284C119.42 12.2284 120.766 12.7041 121.664 13.6554C122.579 14.5898 123.036 15.8384 123.036 17.4013V25.1733H121.094L120.965 22.9054C120.602 23.6189 120.067 24.2305 119.359 24.7401C118.669 25.2328 117.737 25.4791 116.563 25.4791ZM116.9 23.6699C117.728 23.6699 118.436 23.4575 119.023 23.0328C119.627 22.6081 120.084 22.056 120.395 21.3765C120.706 20.697 120.861 19.9835 120.861 19.236V19.2105H117.573C116.295 19.2105 115.389 19.4314 114.854 19.8731C114.336 20.2978 114.077 20.8329 114.077 21.4784C114.077 22.141 114.319 22.6761 114.802 23.0838C115.303 23.4745 116.002 23.6699 116.9 23.6699Z" fill="white"/>
<path d="M128.635 25.1733L124.881 12.5342H127.056L129.774 22.4468L132.778 12.5342H135.237L138.267 22.4468L140.96 12.5342H143.16L139.406 25.1733H137.179L134.021 14.7512L130.862 25.1733H128.635Z" fill="white"/>
<g filter="url(#filter0_ii_8362_20128)">
<path d="M0 11.52C0 7.27845 3.49373 3.84 7.80347 3.84C12.1132 3.84 15.6069 7.27845 15.6069 11.52C15.6069 15.7615 12.1132 19.2 7.80347 19.2C3.49373 19.2 0 15.7615 0 11.52Z" fill="white"/>
</g>
<g filter="url(#filter1_ii_8362_20128)">
<path d="M8.66992 20.0533C8.66992 15.8118 12.1637 12.3733 16.4734 12.3733C20.7831 12.3733 24.2769 15.8118 24.2769 20.0533C24.2769 24.2949 20.7831 27.7333 16.4734 27.7333C12.1637 27.7333 8.66992 24.2949 8.66992 20.0533Z" fill="white"/>
</g>
<path d="M16.4734 11.9398C11.9308 11.9398 8.2364 15.5659 8.2364 20.0533C8.2364 24.5408 11.9308 28.1669 16.4734 28.1669C21.016 28.1669 24.7104 24.5408 24.7104 20.0533C24.7104 15.5659 21.016 11.9398 16.4734 11.9398Z" stroke="#2C665C" stroke-width="0.867052"/>
<defs>
<filter id="filter0_ii_8362_20128" x="0" y="3.40647" width="15.6074" height="16.2271" filterUnits="userSpaceOnUse" color-interpolation-filters="sRGB">
<feFlood flood-opacity="0" result="BackgroundImageFix"/>
<feBlend mode="normal" in="SourceGraphic" in2="BackgroundImageFix" result="shape"/>
<feColorMatrix in="SourceAlpha" type="matrix" values="0 0 0 0 0 0 0 0 0 0 0 0 0 0 0 0 0 0 127 0" result="hardAlpha"/>
<feOffset dy="0.433526"/>
<feGaussianBlur stdDeviation="0.216763"/>
<feComposite in2="hardAlpha" operator="arithmetic" k2="-1" k3="1"/>
<feColorMatrix type="matrix" values="0 0 0 0 0.932788 0 0 0 0 0.932788 0 0 0 0 0.932788 0 0 0 0.24 0"/>
<feBlend mode="normal" in2="shape" result="effect1_innerShadow_8362_20128"/>
<feColorMatrix in="SourceAlpha" type="matrix" values="0 0 0 0 0 0 0 0 0 0 0 0 0 0 0 0 0 0 127 0" result="hardAlpha"/>
<feOffset dy="-0.433526"/>
<feGaussianBlur stdDeviation="0.216763"/>
<feComposite in2="hardAlpha" operator="arithmetic" k2="-1" k3="1"/>
<feColorMatrix type="matrix" values="0 0 0 0 0 0 0 0 0 0 0 0 0 0 0 0 0 0 0.16 0"/>
<feBlend mode="normal" in2="effect1_innerShadow_8362_20128" result="effect2_innerShadow_8362_20128"/>
</filter>
<filter id="filter1_ii_8362_20128" x="7.80273" y="11.0728" width="17.3418" height="17.9612" filterUnits="userSpaceOnUse" color-interpolation-filters="sRGB">
<feFlood flood-opacity="0" result="BackgroundImageFix"/>
<feBlend mode="normal" in="SourceGraphic" in2="BackgroundImageFix" result="shape"/>
<feColorMatrix in="SourceAlpha" type="matrix" values="0 0 0 0 0 0 0 0 0 0 0 0 0 0 0 0 0 0 127 0" result="hardAlpha"/>
<feOffset dy="0.433526"/>
<feGaussianBlur stdDeviation="0.216763"/>
<feComposite in2="hardAlpha" operator="arithmetic" k2="-1" k3="1"/>
<feColorMatrix type="matrix" values="0 0 0 0 0.932788 0 0 0 0 0.932788 0 0 0 0 0.932788 0 0 0 0.24 0"/>
<feBlend mode="normal" in2="shape" result="effect1_innerShadow_8362_20128"/>
<feColorMatrix in="SourceAlpha" type="matrix" values="0 0 0 0 0 0 0 0 0 0 0 0 0 0 0 0 0 0 127 0" result="hardAlpha"/>
<feOffset dy="-0.433526"/>
<feGaussianBlur stdDeviation="0.216763"/>
<feComposite in2="hardAlpha" operator="arithmetic" k2="-1" k3="1"/>
<feColorMatrix type="matrix" values="0 0 0 0 0 0 0 0 0 0 0 0 0 0 0 0 0 0 0.16 0"/>
<feBlend mode="normal" in2="effect1_innerShadow_8362_20128" result="effect2_innerShadow_8362_20128"/>
</filter>
</defs>
</svg>
